<svg preserveAspectRatio="none" xmlns="http://www.w3.org/2000/svg" viewBox="0 0 1000 100"><g fill="#121212" fill-rule="evenodd"><path d="M833 39zm69-1zm0 2a1 1 0 000-1 1 1 0 010-1 5 5 0 00-1 1l1 1zm-73-11a3 3 0 000-1v1-1a1 1 0 000 1zm-58 7l1-1v-1a7 7 0 000-1l-1 2v1zm-41 2v-1a6 6 0 000-1v2z"/><path d="M991 39l-2-1a6 6 0 010 2v-2a3 3 0 010-1l-2-1v1-2a21 21 0 01-1 2v1h-1v2-1a4 4 0 010 2v-1a4 4 0 01-1 1v2-1a6 6 0 010-1 6 6 0 010-1 2 2 0 01-1-1v1c0 1 0-1 0 0a9 9 0 010 2v-3a3 3 0 01-1-2 7 7 0 01-1-1v1l-1-2-1 1c-1 0 0-1 0 0v-1h-2v-2a15 15 0 010-1c0-2-1 1-1-1v-1c0-2 1 1 1 1a1 1 0 000-1 1 1 0 010-1h1l-1 1h1v-1a4 4 0 010 1v1l1 1 1 1v-4l-1-1v-3h-1a3 3 0 010-1v2h-2a1 1 0 010 1c0 1 0 0 0 0v-1a3 3 0 010 1v-1s0 1 0 0a3 3 0 010-1v1a2 2 0 010-1l-1 2v-1h-1a4 4 0 010 2v-1a15 15 0 00-2 1l-2 4v3c0 1 0 0 0 0v-2l-1 1a2 2 0 010-1l1-1v1a2 2 0 000-1c-1-1-1-2-2-1l-4 5h-4l-3 2a5 5 0 00-4 2c-1 1 0 4-2 4h-5l-4-1h-1l-2-3v-1a17 17 0 01-1 4v-4c0-1 0 0 0 0v2-1a5 5 0 010-1 6 6 0 010 2h-1a4 4 0 010 1v2-1a6 6 0 010-1 25 25 0 010-5v-1a2 2 0 00-2-1v1l-1 2v-1l-1-2v2l-1-1h-1v-1a5 5 0 010-1h-2a10 10 0 01-1 2c0 1 0 0 0 0v3h-1v-2l-2-1a2 2 0 010-1 3 3 0 010-1 5 5 0 010 2c-1 1-1-1-1-2v1-1h-1a2 2 0 000 1v-1 1a3 3 0 010 1 3 3 0 000 1 1 1 0 010 1h-1v1c0 1-1 2-1 0s1 0 1-1c0-2-1-1-1-1a7 7 0 010-1h-1v2l-1-2v1a3 3 0 010-1v2c0 1 0 0 0 0v1l-1-1v2-2a4 4 0 000 1v1l-1-1a11 11 0 010-2v2-1s0 1 0 0a3 3 0 01-1 0v2l-1 1v1c0 1 0 0 0 0l-1-1v-1l-1 5v-1c0-1 0 0 0 0v-1l-1 1v2-4l-1 4-1 1v2-1a5 5 0 010-1 6 6 0 010 2 4 4 0 01-1 1v2-1a6 6 0 010-1 25 25 0 01-1-5v-2h-1a4 4 0 010-1 7 7 0 010-1 17 17 0 01-1 2l1 1a1 1 0 01-1 1v1h-1v-3l-1 2v-1h-2v-3c-1-2-1 1-1-1a13 13 0 00-1 1 4 4 0 010 1v-1l-2 4-2 4c-2 2-3 4-4 3a4 4 0 01-3-2l-2-1-2 3c-1 1-1 4-3 5l-3 2a3 3 0 01-1 2v-2a4 4 0 01-1 0v3l-1-2v1l-1 2v-3l-1 2v-2l-1 1v-2a6 6 0 00-1 2l-1 2-1-2a5 5 0 01-2 2l-3 1a11 11 0 010 2 15 15 0 010 2 8 8 0 010 2l-1 1v-1h-1s-1 1-1-1l1 1v-2l-1 1v-1a8 8 0 010-2l-1 1v3a3 3 0 010-2 11 11 0 00-2 2c0 3-2 6-3 4l-4-8-3-9c-1 1-2-2-3-4v1a8 8 0 010-2l-1-1v2a6 6 0 010-3l-1-1v4c-1 0-1-2-2-1l1 2c0 1 0-1 0 0l-1 2-1 3v-2l1-1-1-1a1 1 0 010-1c1-1 1 3 1 2a8 8 0 000-2 5 5 0 000-1v1c-1-1-1-5-2-3l1 1a3 3 0 01-1 2 5 5 0 01-1 2v1a7 7 0 010-3c0-1 1 1 1-1a5 5 0 000-1h-1a8 8 0 01-1-3 4 4 0 010-1l1-2v-2l-1-4v2l-1-2v2-1a3 3 0 01-1 1v2h-1v-1l-1 1v-1l-1-1a9 9 0 010-2 6 6 0 010-1 5 5 0 011-1l-1 1h1c0-1 0-1 0 0a1 1 0 010 1l1-1v1-3l-1-1c0 1 0 1 0 0l-1 2a2 2 0 010 1h-1v-1a14 14 0 01-1 3l1-2-1-1v2-1a9 9 0 010 1l-1 2a11 11 0 010-1v2-1a6 6 0 010-1 3 3 0 010-1 3 3 0 00-1 2l1 2a14 14 0 01-1-2 4 4 0 010-1l-1-1v1a3 3 0 010 1s0-1 0 0v1a6 6 0 010-2 4 4 0 010-1v-1c-1 0 0 6-1 5v-8 1c0 1 0 2-1 1a5 5 0 010-1v1a7 7 0 010 3h-1c0 1 0 0 0 0v1-5l-1 2v-2a3 3 0 01-2-3 7 7 0 01-3 1c-4 1-3 0-4-2a5 5 0 000-1 13 13 0 01-1-2 2 2 0 00-1 1s0-1 0 0v5c-1 1-1-3-1-1l-1 2v-3l1-2c-1-1-1 2-2 1a5 5 0 010-2h1a3 3 0 000-1c-1-1-1 1-1-1a1 1 0 010-1l1 1c0-3-2-1-2-4a9 9 0 011-3l1-1v7l1-2v-2a43 43 0 01-1-3v-1l-1-1v1-1l-2 1a4 4 0 001 1v3-1a3 3 0 01-1 3v-1l-1 1v-1s-1 1-1-1 2 1 1-2a6 6 0 000-1 9 9 0 00-1 2 10 10 0 010 3 7 7 0 01-1-2v1a4 4 0 000 1v1l1 1 1-1v5-4c1-2 1-2 2 0v1c0 5-2 5-3 4 0 0 0 1 0 0v-1c0-2-1 0-1 0l-1 1-1 1-1 1v1-2l-1 2v-3c0-1 0 0 0 0l-1 5-1 3a4 4 0 010-1c-1 3 0 4-2 5a22 22 0 00-2 2l-4-1c-1 1-2 1-2-1s0-9-2-10-1-2-3-1l-3 3c-2 3-1 4-3 4s-3-1-4-4v1a4 4 0 010-1s0 1 0 0v-2a9 9 0 01-1 1s0 1 0 0l1-1a7 7 0 00-1-1v-1a11 11 0 010 2v-2h-1v4-1a5 5 0 010-1 6 6 0 01-1 3v-1a4 4 0 010 1v2-1a7 7 0 010-1 25 25 0 010-5v-1h-2v1l-1 1-1-2a7 7 0 01-1 1v-1h-1l-5 6-4-6-5-6-4-3h-1v1c0 1 0-1 0 0a7 7 0 010 1v-2h-2v1-1a9 9 0 000 2 3 3 0 010 1l-1 1v2s0 1 0 0v-3l-1 3c0 1 0 2 0 0v-2a6 6 0 010-1l-1-1v1l-1 1 1 1c-1 2-1-1-1-2v1a2 2 0 010-1v1h-1c0 3 1 0 1 1v1l-1 1c-1 0 0 0 0 0v-1a1 1 0 010-1 1 1 0 01-1 0v1l1 1a1 1 0 01-1 1v-2c0 1 0 0 0 0h-1l-1 1v1a4 4 0 000-1c0-1 0 0 0 0v3-3a1 1 0 00-1 1v1-1c0-1 0-1 0 0l-1 5v-4l-1 1c-1 0 0 1 0 0v3-1h-1l1-3v1-1l-1 4v1-1a4 4 0 010-1 1 1 0 000-1l-1 1v2c0 1 0 0 0 0v2c0 1 0 0 0 0a5 5 0 010-1 6 6 0 01-1 2v-1a4 4 0 010 1v3-1a6 6 0 010-2 25 25 0 010-5v-1a3 3 0 01-1-2l1 1v-1a11 11 0 01-2 2v1l-1 1a3 3 0 01-1-1l-1 1h-2l-1 1h-1v5c-1 1-1-1-1-2l1-1-1 1-1 1c-1 0 0 0 0 0v1c0 1 0 0 0 0v1l-1-2v1l-1 3 1-3-1-1c0-1 0 0 0 0l-1 2v-1l-1-1 1-1h-1a6 6 0 00-1 2l-1 2-1-2h1l-1-1v1h-1s0 2-1 1v-1l1-3h-1v-1l1-1-2 1-1 1v-1a6 6 0 01-1 0 11 11 0 00-4 0 6 6 0 01-3 0 6 6 0 010 2l-1 2a4 4 0 001 2v1a6 6 0 010 2v1l-1-4v2-1l-1 1-1-2h-1v-1c-1 0 0 0 0 0v1-2l-1 1-1-1v1a12 12 0 000-2l-1-1-1 1-2-6v-1c-1 1-1 0-1-1l1 1-2-4v5-3l-1 2a7 7 0 010-3l1-2v-1a4 4 0 000-1 5 5 0 01-1 1v1l-1-1 1 5-1 1-1-1v2c0 1 0-1 0 0v2c-1 2-1 5-2 3l1-1-1-1 1-1-1-1a1 1 0 010-1c1-1 1 3 1 2a8 8 0 000-2 5 5 0 000-1v1c-1-1-1-4-2-3l1 2a3 3 0 010 1 5 5 0 01-2 2h-1v1a7 7 0 011-3s0 1 0 0a5 5 0 000-2l-1 1a8 8 0 01-1-3 2 2 0 010-1h-6l-4 1h-2v27-28c-4 7-10 7-10 7l-1-1a6 6 0 010 2l-1-1v1-2c0 1 0 0 0 0a3 3 0 010-1l-1-1v1l-1-1v2-2l-1 2v-1a3 3 0 010-1h1-1v5-1a3 3 0 010-1l-1 1a4 4 0 010 1v3l-1-1a6 6 0 011-1v-1a6 6 0 01-1-1l-1 1h1a9 9 0 01-1 1v1a4 4 0 010-1v-2a3 3 0 01-1-2 7 7 0 010-1v1l-1-1v-2l-1 1c0 1 0 0 0 0h-1l-1-1v-2c0-1 0 0 0 0v1l-1-2v-1a3 3 0 010 1v-1c0-3 0 1 1 0a2 2 0 000-1v1-1h1a3 3 0 01-1 0l1 1 1 1v1-1l1-2h-1v-3a2 2 0 010-1v-1h-1s0 1 0 0v1a3 3 0 010-1v1h-1l-1 1a1 1 0 010 1 1 1 0 010-1l-1 1 1-1a3 3 0 010-2l-1 1v1a4 4 0 000-1l-1 1a5 5 0 010 1v-1a15 15 0 00-2 1c0 1 0 0 0 0l-2 5v2c0 1 0 0 0 0v-1h-1a2 2 0 010-1h1c1 1-1 0 0 0a2 2 0 000-1c-2-1-1-2-3-1s-2 5-3 5h-4c-2 1-2 3-4 3a5 5 0 00-3 2c-1 1 0 3-2 3h-5l-4-1h-1l-2-3v-1a2 2 0 000 1 16 16 0 01-1 3v-3a6 6 0 010-1v2c0 1 0 0 0 0a5 5 0 010-1 6 6 0 01-1 2v-1a4 4 0 010 1v2a6 6 0 010-2 25 25 0 010-5 2 2 0 00-2-1 1 1 0 010 1l-1 1-1-2v1h-1v-1h-1c-1 0 0 0 0 0a5 5 0 010-1 18 18 0 00-2 0 9 9 0 01-1 2s0-1 0 0v3c0 1 0 0 0 0h-1v-3l-2-1a2 2 0 010-1 5 5 0 010 2l-1-2v1-1h-1v1c0 1 0 0 0 0v-1a3 3 0 010 2h-1a1 1 0 011 1h-1a2 2 0 010 1v1-1c0 1-1 2-1 0v-2a4 4 0 010-1 2 2 0 01-1 0v2c0 2-1 0-1-1v3h-1v-2a4 4 0 00-1 1l1 1a1 1 0 010 1l-1-1v-1a11 11 0 010-1v1-1l-1 1 1-1a3 3 0 01-1 0v1-1a1 1 0 010 1v2h-1a4 4 0 000-1c0-1 0 0 0 0v3-3a1 1 0 00-1 1v2-2l-1 5v-3l-1 2v1-3c0-1 0 0 0 0s0-1 0 0l-1 4v-1a4 4 0 010-1 1 1 0 000-1v3l-1 1v2-1a5 5 0 010-1 6 6 0 01-1 2v3-1a6 6 0 010-2 25 25 0 010-4v-2a2 2 0 010-1h-1a4 4 0 01-1-1 7 7 0 010-1 17 17 0 010 2v1a1 1 0 010 1l-1 1-1-2v1h-1v-1h-1c-1 0 0 1 0 0v-2l-1-1v2a15 15 0 010-2c0-1-1 1-1-1a13 13 0 00-1 2l-1 3-2 4c-1 2-3 4-5 4a4 4 0 01-3-2l-3-2-1 4-3 4-4 3a3 3 0 010 1v-1l-1-1a4 4 0 010 1v1l-1-1v2h1-1v-1l-1 1-1 2 1-3-1-1-1 3 1-3-1 1v-2h-1c-1 0 1 0 0 0a6 6 0 00-1 2v2c-1 0-2 0-1-1v-1h-1a5 5 0 01-1 2l-3 1v1-1l-1 1a11 11 0 011 2 15 15 0 010 2 8 8 0 010 2l-1 1-1-2v1l-2-1h1v-1a8 8 0 01-1-2v1h-1v2a3 3 0 010-2 11 11 0 00-1 3c-1 2-3 5-4 3l-3-7c-1 0-3-10-4-9l-2-5-1 1a8 8 0 010-2s0 2-1 1a6 6 0 010-2v1l-1 1v1l-1-2 1 2-1 1v2l-1 3v-5a1 1 0 010-1s0 4 1 3a8 8 0 000-2 5 5 0 000-1h-1l-1-2v1a4 4 0 010 1 5 5 0 01-1 2h-1v1a7 7 0 011-3h1a5 5 0 00-1-2l-1 1a8 8 0 010-3 4 4 0 010-2l1-2-1-2c0-1 0-4-1-3v2l-1-2a3 3 0 010 1 3 3 0 010 1h-1v2l-1-2s0 1 0 0v1l-1-1v-1a9 9 0 010-1v-1c1 0 0 0 0 0a9 9 0 010-1 5 5 0 010-1v1a1 1 0 010 1l1 1v-3a1 1 0 010-1l-1-1a1 1 0 010 1l-1 2s0 1 0 0h-1a13 13 0 010 3v-3a15 15 0 010 1c0 1 0 0 0 0a3 3 0 010-1h-1a7 7 0 010 1v3a11 11 0 010-2v2a6 6 0 010-2 3 3 0 010-1 1 1 0 01-1 0 3 3 0 000 3v2a14 14 0 01-1-3v1a4 4 0 010-1 3 3 0 010 1h-1a6 6 0 010-1 4 4 0 010-1v-1h1l-1 4v-7a1 1 0 010 1l-1 1a5 5 0 010-1v1a7 7 0 010 2l-1 1-1 1 1-4v-1h-1v1-2a3 3 0 01-2-2 7 7 0 01-3 1c-4 1-3 0-4-2a4 4 0 000-1 14 14 0 01-2-2h-1l1 2-1 1v2l-1-1v2l-1-2 1-2c0-2-1 1-1 1a5 5 0 010-2c0-1 0 1 0 0a3 3 0 000-2c0-1-1 1-1-1a1 1 0 010-1l1 1-1-3a9 9 0 010-3l1-1v1l1 2v3-2h1l-1-1a40 40 0 01-1-4c0-2 0-2-1-1l-1 1v3l1-2v2a3 3 0 01-1 2l-1-1v1l-1-1h-1c0-3 2 0 2-2a6 6 0 000-1 9 9 0 00-2 2 10 10 0 010 3 7 7 0 010-3l-1 1a4 4 0 000 1l1-1v3l1 1v2l1 1v-4c0-2 1-1 1 0l1 1c0 5-2 5-3 5l-1-1 1-1h-1l-1 1-2 1v3l-1-2v2-3h-1l-1 4a2 2 0 010 1v2a4 4 0 010-1l-2 5a22 22 0 00-3 3l-4-2c-1 0-1 2-2-1s0-8-1-9-2-2-3-1l-3 3c-2 3-1 4-3 4s-3-1-4-4l-1 1a4 4 0 010-1h1a3 3 0 000-1l-1-2a9 9 0 010 1c0 1 0 1 0 0 0 0 0 1 0 0v-2h-1a11 11 0 010 1v-1a3 3 0 000-1v5l-1-1c-1 0 0 0 0 0a5 5 0 010-1 6 6 0 010 2l-1 1v2-1a6 6 0 010-2 25 25 0 010-4v-2h-2v1l-1 1c-1 0 0 0 0 0v-2h-1a7 7 0 010 1h-1v-1a2 2 0 00-1 1l-5 6-4-6-5-7-4-2h-1a8 8 0 010 1v-2h-1v1a2 2 0 01-1-1v2-1a9 9 0 000 2 3 3 0 010 1h-1v3c0 1-1 2-1 0s0 0 1-1c0-2-1-1-1-1a7 7 0 010-1v-1a2 2 0 010-1l-1 2v2l-1-2s0 1 0 0v2c0 1 0 0 0 0v1l-1-1v2l-1-1 1-1h-1v1a2 2 0 010-1 5 5 0 010 1v-1s0 1 0 0h-1v2l-1 1v-1a4 4 0 001 0v-1l-1 1v3-1l-1-1v4c-1 1-1 0-1-1v-1l-1-1v4-4l-1 4-1 1v2-1a5 5 0 010-1 6 6 0 010 2 4 4 0 01-1 1v2-1a6 6 0 010-1 25 25 0 010-5v-2a3 3 0 010-1s0 1 0 0a11 11 0 01-2 2v1l-1 1a3 3 0 010-1l-2 1c0 1 0 0 0 0h-2v1h-1l-1 5v-3l-1 1v1h-1v1h1l-1 1v-2l-1 1-1 2 1-3h-1l-1 2 1-2-1 1v-3h-1v1a6 6 0 00-1 1l-1 3v-3l-1 1h-1v1-4c0-1 0 1 0 0v-2h-2a2 2 0 010 1l-1 1v-1a6 6 0 01-1 0 11 11 0 00-4 0 6 6 0 01-2 0 6 6 0 01-1 2v2a4 4 0 000 1l1 2a6 6 0 01-1 2v-3l-1 1v1-1l-1 1-1-2v-1h-1c0-1 0 1 0 0v-1l-1 1v-1l-1 1a13 13 0 000-2v-1h-2l-2-6-1-1 1 1-1-4v2l-1 3v-3c-1 0 0 2-1 1a7 7 0 011-3v-2a1 1 0 010-1 4 4 0 010 1v1h-1s0-2-1-1l1 5h-1v1s-1-3-1-1l1 2h-1v2l-1 3v-3c0-1 0 0 0 0v-2c0-1 0 3 1 2a8 8 0 000-2 5 5 0 000-1h-1l-1-2v1a3 3 0 010 2 5 5 0 01-1 1l-1 1c-1 0 0 1 0 0a7 7 0 011-3h1a5 5 0 00-1-1h-1a8 8 0 010-3 2 2 0 010-1h-7l-4 1h-2v1c-4 7-9 7-9 7l-2-1a6 6 0 01-1 2v-2c0 1 0 0 0 0a3 3 0 010-1l-1-1-1 1v-1a19 19 0 010 2v-2l-1 2v-1a4 4 0 010-1v5-1h-1a3 3 0 010-1v1a4 4 0 010 1v3l-1-1a6 6 0 011-1v-1a6 6 0 01-1-1l-1 1h1a9 9 0 01-1 1v1a4 4 0 010-1v-2a3 3 0 01-1-2 6 6 0 010-1l-1 1v-1l-1-2v1c0 1 0 0 0 0h-2v-3h-1v1a15 15 0 010-2l-1-1v1-1c0-3 1 1 2 0 0-1 0 0 0 0l1 1h1v1-6a2 2 0 010-1v-1h-1s0 1 0 0v1a3 3 0 01-1-1v1c0 1 0 0 0 0a3 3 0 01-1 0v1a1 1 0 010 1h-1a1 1 0 010-1v1-1h1-1a3 3 0 010-2v1l-1 1v-1 1h-1a4 4 0 010 1v-1a16 16 0 00-1 1c0 1 0 0 0 0l-2 5v2c0 1 0 0 0 0h-1v-1c-1 0 0 0 0 0a2 2 0 010-1s0-1 0 0a2 2 0 000-1c-1-1 0-2-2-1s-3 5-4 5h-3l-4 3a5 5 0 00-3 2c-1 1-1 3-3 3h-4l-5-1c0 1 0 0 0 0-1 0-1 1-3-3v-1a2 2 0 000 1 16 16 0 010 3v-2c0 1 0 0 0 0h-1a5 5 0 010-1 6 6 0 010 2v-1a4 4 0 010 1v1l-1 1c-1 0 0 0 0 0a6 6 0 011-2 1 1 0 01-1 0 25 25 0 010-5 2 2 0 00-2-1v2h-1v-2h-1v1s0-1 0 0v-1h-2a5 5 0 010-1 18 18 0 00-2 0 9 9 0 010 2s0-1 0 0v3h-1l-1-3-1-1a2 2 0 010-1h-1a5 5 0 010 2v-2h-1v1c0 1 0 0 0 0v-1a3 3 0 01-1 2s0-1 0 0v1a2 2 0 010 1v1-4c-1-1-1 2-1 3s0 2 0 0v-2a5 5 0 01-1 0 4 4 0 010-1 1 1 0 010 1v-1l-1 1v1-1l-1 1c0 2 1-1 1 1l-1 1-1-2v1-1a4 4 0 000 1v1a1 1 0 010 1v-2a11 11 0 010-1v1l-1-1v1-1 1-1a1 1 0 010 1l-1 1v1s0 1 0 0a4 4 0 000-1c0-1 0 0 0 0l-1 3v-3a1 1 0 000 1v2-1l-1-1v5-3l-1 1v1-1l-1 2 1-3h-1s0-1 0 0v4-2s0 2-1 1 1-1 1-1l-1 2v-1a4 4 0 010-1 1 1 0 000-1v6-1h-1a5 5 0 010-1 6 6 0 010 2v1l-1 2v-1a6 6 0 011-2 25 25 0 01-1-4v-2a2 2 0 010-1h-1a4 4 0 010-1 7 7 0 010-1 17 17 0 01-1 2l1 1a1 1 0 01-1 1v1h-1v-2l-1 1v-1h-2v-1l-1-2v-1a13 13 0 00-1 2l-2 3-2 4-4 4a4 4 0 01-3-2l-3-2c-1 0 0 3-2 4s-1 3-3 4l-3 3a3 3 0 010 1c-1 1-1-1-1-1v1l-1-1v2s0-1 0 0c0 0 0 1 0 0 0 0 0-2-1-1v1l-1 2 1-3h-1v-1l-1 3 1-3-1 1-1-1 1-1h-1a6 6 0 00-1 2l-1 2-1-1 1-1h-1a5 5 0 01-2 2l-2 1v1l-1-1v1a11 11 0 011 2 15 15 0 010 2 8 8 0 010 2l-1 1-1-2v1l-2-1h1v-1a8 8 0 01-1-2l-1 1v2a3 3 0 010-2 11 11 0 00-1 3c-1 2-3 5-4 3l-3-7s-3-10-4-9l-3-5v1a8 8 0 010-2l-1 1a6 6 0 010-2l-1-2 1 3-1 1v1l-1-2 1 2-1 1v2l-1 3v-2l-1-1 1-1-1-1a1 1 0 011-1s0 4 1 3a7 7 0 000-2 4 4 0 000-1h-1l-1-2v1a4 4 0 010 1 5 5 0 01-1 2h-1v1a6 6 0 011-3s0 1 0 0a5 5 0 000-2l-1 1a8 8 0 01-1-3 4 4 0 011-2l1-2-1-2c0-1 0-4-1-3v1-1l-1 2v-2a3 3 0 010 1 3 3 0 010 1h-1v2l-1-2s0 1 0 0l-1 1v-1l-1-1a9 9 0 010-1v-1h1a6 6 0 010-1 5 5 0 010-1v1a1 1 0 010 1v1l1-2v2-4l-1-1a2 2 0 010 1l-1 2s0 1 0 0h-1a14 14 0 010 3v-3a15 15 0 010 1c0 1 0 0 0 0h-1a3 3 0 010-1 9 9 0 010 1c0 2 0 4-1 3a10 10 0 011-2l-1 1v1-1a6 6 0 010-1 3 3 0 010-1 3 3 0 000 3v2a14 14 0 01-1-3v-1h-1a2 2 0 010 1s1-1 0 0c0 1 0 0 0 0v1a6 6 0 010-1 1 1 0 010-1 4 4 0 010-1v4-7h-1a5 5 0 010 1v1a5 5 0 010-1h-1v1h1a7 7 0 01-1 2v1l-1-1v1l1-3v-1h-1v1-2a3 3 0 01-2-2 7 7 0 01-3 1c-4 1-3-1-4-3a4 4 0 00-1-1 14 14 0 01-1-1h-1l1 2-1 1v2l-1-1v2l-1-2 1-3-1 2a5 5 0 010-2c0-1 0 1 0 0a3 3 0 000-2c0-1-1 1-1-1a1 1 0 010-1l1 1-1-4a9 9 0 010-2l1-1v1l1 2v3-2h1l-1-1v-2l-1-2c0-2 0-2-1-1l-1 1v3l1-2v2a3 3 0 01-1 2l-1-1v1l-1-1h-1c0-3 2 0 2-2a6 6 0 000-1 9 9 0 00-2 2 10 10 0 010 3 7 7 0 010-3l-1 1a4 4 0 000 1l1-1v3l1 1v2c0 1 0 2 1 1v-4c0-2 1-1 1 0l1 1c0 5-2 5-3 5l-1-1 1-1h-1l-1 1-2 1v2l-1-1v2-3h-1l-1 4a2 2 0 010 1v2a4 4 0 010-1l-2 5a22 22 0 00-3 3l-4-2c-1 0-1 2-2-1s0-8-1-9-2-2-4-1l-2 3-3 4c-1 0-3-1-4-4l-1 1a3 3 0 010-1 3 3 0 000-1v-1a7 7 0 010 1l-1-1h1v-1a7 7 0 00-1 0v-1a11 11 0 010 1l-1 1v2-1a5 5 0 010-1 6 6 0 010 2 4 4 0 01-1 0v3-1a6 6 0 010-2 25 25 0 010-4v-2h-2v1l-1 1-1-2a7 7 0 010 1h-1v-1a2 2 0 00-1 1l-5 6-4-7-5-6-4-2h-1v1-2h-1v1a2 2 0 010-1h-1v2-1a9 9 0 000 1 3 3 0 010 2v2h-1v1-1s-1 3-1 1 0 0 1-1c0-2-1-1-1-1a7 7 0 010-1v-1a2 2 0 010-1l-1 2v2l-1-2s0 1 0 0v2c0 1 0 0 0 0v1l-1-1v2-2h-1v1a2 2 0 010-1 7 7 0 010 1v-1s0 1 0 0h-1v2l-1 1 1-1v-1l-1 1v2c0 1 0 0 0 0l-1-1v-1l-1 5v-1c0-1 0 0 0 0v-2l-1 1v3-4l-1 4-1 1v2-1a5 5 0 010-1 6 6 0 010 2 4 4 0 01-1 1v2-1a7 7 0 010-1 25 25 0 010-5v-2a3 3 0 01-1-1 11 11 0 01-2 2l-1 2v-1l-1 1h-1c0 1 0 0 0 0h-1l-1 1-1-1-1 6v-3l-1 1v1s0-1 0 0v1l-1 1v-2l-1 1c0 1 0 3-1 2s1-2 1-3c-1 0-1 3-2 2s1-3 1-3l-1 1v-1a6 6 0 00-1 1l-1 2-1-1v-1h-1v1l-1 1v-4c-1-1 0 0 0 0v-2h-1a2 2 0 01-1 1v1-1a6 6 0 01-2 0 11 11 0 00-4 0 6 6 0 01-2 0 6 6 0 010 2l-1 2a4 4 0 000 1l1 2a6 6 0 01-1 2v-3c0-1 0 1 0 0l-1 2v-1l-1 1-1-2c0-1 0 0 0 0v-2h-1v1-1h-1v-1l-1 2a12 12 0 001-2l-1-1v-1l-1 1s-1 1-3-6l-1-1 1 1-1-4v2c0 1 0 3-1 2s1-3 0-2v1a7 7 0 010-3l1-1-1-1a1 1 0 010-1v2h-1v4h-1v1s0-3-1-1l1 2h-1v2l-1 3v-3c0-1 0 0 0 0v-2l1 2a7 7 0 000-2 4 4 0 000-1h-1l-1-2v1a3 3 0 010 1 5 5 0 01-1 2c0 1 0 1 0 0l-1 1a7 7 0 011-3h1a5 5 0 000-1h-2a8 8 0 010-3 2 2 0 010-1H6l-4 1H0v71l1000 2V32c-4 7-9 7-9 7zm-12-10v1-1zm0-2v1-1zm0 3zm0-5zm0 4l-1 1 1-1zm-1 0s0-1 0 0a2 2 0 010-1v1zm-1-2h1v1h-1c0 1 0 0 0 0a1 1 0 010-1zm0 0c0 1 0 1 0 0zm-167-7v1-1zm0 1v1s-1-1 0 0zm-164 7zm0-2zm-1 2zm0-5v1-1zm0 4v1-1zm0 0v1-1zm-1-1v1-1zm-1 0l1-1v1h-1c0-1 0 0 0 0zm-167-7v1-1zm0 1zm-163 8zm-1-2zm0 2zm0-5v1-1zm0 4v1-1zm-1 0h1l-1 1v-1zm0-1v1-1zm-1 0v-1h1-1v1c0-1 0 0 0 0zm-167-7v1-1zm0 1zM13 51h-1l1 1v-1zm1-1l-1-1a3 3 0 010-2l1 2-1 1zm8 6l-1 1 1-1zm5-5l-1-2 1 2zm1-6h-1v-2a3 3 0 010 2zm0 3v1-1zm1 1a1 1 0 011-1l-1 1zm2 2l-1-2v2zm3-13a2 2 0 010 1h1l-1 2-1 1a3 3 0 010-1l1-1v-2zm-2 3l1-1v-1l1 1a3 3 0 01-1 1h-1zm3 5h-1v1a3 3 0 01-1-1v-1l1 1v-2c0-1 0 0 0 0l1 2zm0-5l-1 1v-1a3 3 0 011-1h1l-1 1zm0 8a3 3 0 010-1v1zm1-2zm3 10l-2 1v1-4l1 2h1zm-1-4a7 7 0 010 2h-1l1-1-1-1v-1s0 1 0 0l1 1v-1l1-1-1 2zm2 5zm0-3h-1v1a2 2 0 010-1v-1l1-1a3 3 0 010 2zm0-12v3a15 15 0 010 2 8 8 0 010 2l-1 1-1-2v1s-1 1-1-1l1 1v-2l-1 1v-3l-1-1h1s0 1 0 0v-1l1-1-1-1 1-1s-1 0 0 0v-1l1-1v-2l1 1-1 1a3 3 0 000 1l1 1c0 1 0 0 0 0h-1v2-1l2 1h-1zm5 9l-1 1 1-1zm14-17v1a1 1 0 010-1zm0 8a9 9 0 010 1h-1l1-1zm0-3zm0-2a16 16 0 010 3v-3a4 4 0 010-2v1zm2 2a3 3 0 01-1 0v1a6 6 0 010-1c0-1 0-1 0 0h1zm0-3a9 9 0 01-1 1s0 1 0 0l1-1zm0 2v1a4 4 0 010-1s0 1 0 0v-1a5 5 0 010-1v1c0 1 0-1 0 0a9 9 0 010 1zm2 3a9 9 0 010 1v-1zm1-4h-1 1zm0-2a16 16 0 010 4v-3a4 4 0 010-2v1zm1 3v1a6 6 0 010-2v1s0-1 0 0zm0-3a9 9 0 010 1v-1zm1 2v1a3 3 0 010-1v-1a5 5 0 010-1v1c0 1 0-1 0 0a9 9 0 010 1zm2-7h-1l1 2-1-1 1-1zm-1 7v2-2zm1-4a8 8 0 010 3l-1-1v1-2a2 2 0 010 1v-2l1 1v-1a9 9 0 010 1c-1 1 0 0 0 0v-1zm0-1v2a6 6 0 010-2zm4 2v-2a6 6 0 010 2zm2-8v1-2s0-1 0 0v1zm27 6c0-1 0-1 0 0zm-1 7v1a9 9 0 010 1v-2zm1-3h-1c0-1 0 0 0 0h1zm0-2a16 16 0 010 3v-3a4 4 0 010-1v1zm1 2a3 3 0 010 1v1a6 6 0 010-2zm0-2a9 9 0 010 1c0-1 0 0 0 0v-1zm1 2v1a3 3 0 010-1v-1a5 5 0 010-1v1s0-1 0 0a9 9 0 010 1zm1 11a4 4 0 010-1v2zm1-9v1a9 9 0 010 1v-2zm0-3zm1-2a16 16 0 01-1 3v-3a4 4 0 011-1v1zm1 2a3 3 0 010 1l-1 1a6 6 0 010-2h1zm11 2v1c0-2 1-2 1-1zm7 16zm0-8zm10-3c-1 1-1-2-1-3l1 3zm5-9l-1-1 1 1zm-1 2c0-1 1 0 0 0l1 1c0 2-1 0-1-1zm2 1v-3s0 3-1 2a8 8 0 010-3l1 1c1 0 0 0 0 0v3zm2 0c-1 1-1 1-1-1 0 0 0 1 0 0l1-1a12 12 0 010 2zm1-2c0 2-1 3-1 1v-1l1-2a6 6 0 010 2zm9 3a4 4 0 01-1-3l1-1v4zm1 5v-1l1-1-1 2zm1-5h-1l1-1-1-1 1 2zm5 5a10 10 0 010 1h-1l1-1zm0-3zm0-2a16 16 0 010 3v-3a4 4 0 010-1s0-1 0 0v1zm2 5zm2-1a9 9 0 010 1c0 1 0 0 0 0v-1zm1-3l-1-1 1 1zm0 6a9 9 0 010-3c0-1 0 0 0 0v3zm1-7l1-2-1 2zm0 1v1a6 6 0 010-1c0-1 0-1 0 0zm5 31v-1l1 2zm1-2v-1a3 3 0 010-1v2zm8 7s0 1 0 0zm6-6l-1-2 1 2zm1-2l-1 1 1-1zm8 4h1v1h1v-1a7 7 0 010 3h-1l1-1-1-1v-1h-1zm1 5l-1 2 1-2 1-1-1 1zm2 4zm0-3zm1-4l-1 1v1a2 2 0 010-1v-3a3 3 0 011 2zm5-2l-1 1 1-1zm30-31s0 1 0 0zm5 5c0-1 0-1 0 0zm-1 7v1a9 9 0 010 1v-2zm1-3h-1c0-1 0 0 0 0h1zm0-2a16 16 0 010 3v-3a4 4 0 010-1v1zm1 2a3 3 0 010 1v1a6 6 0 010-2zm0-2a9 9 0 010 1c0-1 0 0 0 0v-1zm1 2v1a3 3 0 010-1v-1a5 5 0 010-1v1-1a9 9 0 010 2zm2 2v1a9 9 0 010 1v-2zm0-3zm1-2a16 16 0 01-1 3v-3a4 4 0 011-1v1zm1 2a3 3 0 010 1l-1 1a6 6 0 010-2h1zm0-3a7 7 0 010 2l-1-1h1v-1zm0 3v1a3 3 0 010-1v-1a5 5 0 010-2v2l1-1a9 9 0 01-1 2zm2-7s0-1 0 0v1-2zm0 7v2l-1-1 1-2v1zm1-4a8 8 0 01-1 3v-2c0 1 0 0 0 0v-1a8 8 0 010 1c0 1 0 0 0 0l1-1zm0-1v1a6 6 0 010-1zm3 1c0 1 0 0 0 0l1-1a6 6 0 010 1zm2-1zm1-7l-1 1c-1 0 0 1 0 0l1-1s0-1 0 0v1zm2 9a9 9 0 010-3c0-1 0 0 0 0v3zm1-7zm1 0zm1-1v-1a7 7 0 010 2v-1zm0 4v-2 2zm1 0s0-1 0 0v-1a1 1 0 010 1zm1-1v-1s0-1 0 0a2 2 0 010 1zm6-4v1a1 1 0 010-1zm0 8v1a9 9 0 010 1v-2zm0-3zm0-2a16 16 0 010 3v-3a4 4 0 010-1s0-1 0 0v1zm2 2a3 3 0 01-1 1 6 6 0 010-1c0-1 0 0 0 0h1zm0-3a9 9 0 01-1 1c0 1 0 1 0 0l1-1zm0 3s0 1 0 0v-2a5 5 0 010-1v1c0 1 0-1 0 0a9 9 0 010 2zm2 2a9 9 0 010 1c0 1 0 0 0 0v-1zm1-3l-1-1 1 1zm1 0c0 1 0 0 0 0v1a6 6 0 010-1c0-1 0 0 0 0zm32-12s0 1 0 0zm1-1zm1 2c0 1 0 0 0 0zm0-2a1 1 0 010 1v-1zm0 2v1zm1-4v1a3 3 0 010-1zm0 1c0 1 0 1 0 0zm0 5a2 2 0 010-1v1zm1-3a2 2 0 01-1 1v-1zm0-1zm0 5zm0-2zm0-4zm0 1h1a2 2 0 01-1-1h1a1 1 0 010 1s0-1 0 0a2 2 0 010 1v-1a2 2 0 01-1-1v1zm0-2a4 4 0 010 2 5 5 0 010-2zm0 6v1zm5 5c0-1 0-1 0 0v1-1zm0 7v1a8 8 0 01-1 1l1-2zm0-3c0 1 0 0 0 0 0-1 0 0 0 0zm0-2a17 17 0 010 3v-3a4 4 0 010-1v1zm1 2a3 3 0 010 1v1a6 6 0 010-2zm0-2a9 9 0 010 1c0-1 0 0 0 0v-1zm3 4v1a10 10 0 010 1v-2zm0-3c0 1 0 0 0 0 0-1 0 0 0 0zm1-2a16 16 0 010 3v-3a4 4 0 010-1v1zm1 2a3 3 0 010 1v1a6 6 0 010-2zm0-2a9 9 0 010 1c0-1 0 0 0 0v-2zm1 2l-1 1a4 4 0 010-1h1v-1a5 5 0 010-1v1-1a9 9 0 010 2zm1 0v2-2zm667 1v1l-1 1v-1l1-1zm-2 0v1-2a5 5 0 010-1v1c0 1 1-1 0 0a9 9 0 010 2s0 1 0 0zm-1-1l1-1a9 9 0 010 1h-1zm0 2c0-1 0-1 0 0h1-1v1a6 6 0 010-1zm-1-2a4 4 0 010-1h1l-1 1a16 16 0 010 3v-3zm0 1v1-1zm0 5v-1a7 7 0 010 1c0 1 0 0 0 0zm-3-5v-1a7 7 0 010 1c0 1 0 1 0 0zm0 2c0-1 0 0 0 0a3 3 0 010 1 6 6 0 010-1zm-1-5v1-1zm0 3a4 4 0 010-1v1a16 16 0 010 3v-3zm-1 1v1-1zm0 5a7 7 0 010 1v-1zm-6-18c0-1 0 0 0 0zm1 4v1-1zm1 1zm0-5s0 1 0 0a3 3 0 000 1v-1a2 2 0 010 1 2 2 0 010-1zm0-1a5 5 0 010 1 4 4 0 010-1zm-1 0a1 1 0 011 1l-1-1c0-1 0 0 0 0zm0 4h1zm0-2zm0 1s0-1 0 0c0 0 0 1 0 0zm0 2zm-1-5v1a2 2 0 010-1zm0 3v1-1zm0-1c0 1 0 0 0 0zm-1 2zm0-3v1-1zm-1 2zm-33 11h1v1l-1 1a6 6 0 010-2zm-1 0c0 1 0 0 0 0zm0 5v-1a9 9 0 010 1zm-2-4v-1a5 5 0 010-1v1c0 1 0-1 0 0a9 9 0 010 1l-1 1a4 4 0 011-1zm-1-1c0-1 0 0 0 0v-1a9 9 0 010 1zm0 1v1c0 1 0-1 0 0v1a6 6 0 010-2zm-1-4v1-1zm0 3a4 4 0 010-2v1a16 16 0 010 4v-3zm-1 1h1-1zm0 5v-1a9 9 0 010 1zm-6-6l1-1a2 2 0 01-1 2v-1zm-1 1h1a1 1 0 01-1 1v-1zm0 0zm0-4v-1a7 7 0 010 2v-1zm-2 1l1 1-1-1zm-1 1l1-2-1 2zm0 3v3a10 10 0 010-3zm-3-6h1l-1 1v1s0 1 0 0v-2zm-1 8zm-1 0a6 6 0 010 1v-1c0-1 0-1 0 0zm-4 0h1l-1 1a6 6 0 010-1zm0-3v2l-1-1 1-1zm0 4v-1a9 9 0 010 2c0 1 0 0 0 0v-1a8 8 0 010 3v-1h-1l1-1h-1l1-1zm-1 3v2-2zm-1 0v1-2a5 5 0 010-1v1c0 1 0-1 0 0a9 9 0 010 2s0 1 0 0a3 3 0 010-1zm-1-1v-1a9 9 0 010 1s0 1 0 0zm0 2c0-1 0-1 0 0v1a6 6 0 010-1zm-1-2a4 4 0 010-1c0-1 0-1 0 0v1a16 16 0 010 3v-3zm0 1v1-1zm-1 5l1-1a9 9 0 01-1 1c0 1 0 0 0 0zm-2-3c0-1 0 0 0 0v-2a5 5 0 011-1l-1 1h1a9 9 0 01-1 2s0 1 0 0zm-1-2h1v-1a9 9 0 010 1h-1zm0 2h1c0 1 0 0 0 0l-1 1a6 6 0 010-1zm-1-5l1 1a1 1 0 01-1-1zm1 3h-1a4 4 0 011-1s0-1 0 0v1a16 16 0 01-1 3v-3zm-1 1v1-1zm0 5a10 10 0 010 1v-1zm-4-13h-1zm-39 33l1 2h1l-1 1-1 2v-5zm2 3l1 1-1-1zm6-5v1-1zm-6 2l1-1v-1a3 3 0 010 2v2a2 2 0 01-1-2zm0 7l-1-1 1 1zm-1-10v1h1v-1c1 0 0 0 0 0v1a7 7 0 01-1 2c0 1 0 1 0 0v-2h-1v-1h1zm-10-4v1-1zm-1 3zm-5 5l-1 1 1-1zm-9-9l1 2v1l-1-1a3 3 0 010-2zm0 5l-1-1 1 1zm-6-32l1-2v2zm0 0h1c0 1 0 0 0 0a3 3 0 010 1h-1v1a6 6 0 010-2zm0 3v3a9 9 0 010-3zm-1-3c0 1 0 0 0 0 0-1 0 0 0 0zm0 3v1a10 10 0 010 1v-2zm-10 0v1-1zm8 2l-1-1 1 1zm-2-6a4 4 0 010-1v1a16 16 0 010 3v-3zm-1 2h1-1c0-1 0 0 0 0zm0 5v-1a9 9 0 010 1zm-5-6zm-1-4s0-1 0 0l-1 3a4 4 0 010-2l1-1zm-10 0v-1a6 6 0 010 2l-1 1 1-2zm-1 2v-2a12 12 0 010 3l-1-1h1zm-2-3v1h1v3-3l-1 2a8 8 0 010-3zm-1 1zm0 2v1l-1-2 1 1zm-5 4v2-3zm-9 6zm0 5v2h-1l1-2zm-7-14l-1 2 1-2zm-12-1c0-1 0-1 0 0 0 0 0-1 0 0v1a6 6 0 010-1zm-1-2a4 4 0 010-1v1a16 16 0 010 3v-3zm0 1v1-1zm-1 5l1-1a10 10 0 01-1 1c0 1 0 0 0 0zm-1 7c1-1 1 1 1 2l-1-1a3 3 0 010-1zm-1-10c0-1 0 0 0 0v-2a5 5 0 011-1l-1 1h1a9 9 0 01-1 2s0 1 0 0zm-1-2h1v-1a9 9 0 010 1h-1zm0 2h1c0 1 0 0 0 0l-1 1a6 6 0 010-1zm-1-5l1 1a1 1 0 01-1-1zm1 3h-1a4 4 0 011-1s0-1 0 0v1a17 17 0 01-1 3v-3zm-1 1v1-1zm0 4a9 9 0 010 2v-2zm-26-14l-1 1s0 1 0 0c0-2 0-1 1-1zm-2 7a6 6 0 01-1 1l1-1zm-4 0s0-1 0 0v1a6 6 0 010-1zm-1-3v1s0-1 0 0v1-2zm0 4a9 9 0 010 1c0 1 0 0 0 0l1-1a8 8 0 01-1 3v-3zm0 3v3l-1-1 1-2zm-2 1v-2a5 5 0 010-1v1h1a9 9 0 01-1 2v1a4 4 0 010-1zm-1-2s0 1 0 0l1-1a9 9 0 010 1h-1zm0 2h1a3 3 0 010 1h-1a6 6 0 010-1zm-1-2a4 4 0 011-1v1a17 17 0 01-1 3v-3zm0 1v1-1zm0 5a9 9 0 010 1v-1zm-2-3v-1a5 5 0 010-2v2-1a9 9 0 010 2l-1 1a4 4 0 011-1zm-1-2s0 1 0 0v-1a9 9 0 010 2v-1zm0 2c0-1 0 0 0 0a3 3 0 010 1v1a6 6 0 010-2zm-1-5v1a1 1 0 010-1zm0 4v-1a4 4 0 010-1v1a16 16 0 010 3v-2zm-1 0l1 1c-1 1-1 0-1-1zm0 6v-1a7 7 0 010 1zm-20 17h1zm-3-14v2a3 3 0 010-2zm0-1h1-1zm3 6a7 7 0 010 3l-1-1h1l-1-1-1-1h1v1h1v-1zm-1 3v2l1-1-1 1-1 2 1-2v-2zm2 0v1a2 2 0 010-1v-3a3 3 0 011 2l-1 1zm0 3zm6-6l-1 1 1-1zm-9-8l1-2v-2l1-1 1-1v-1c1 0 0 0 0 0v1a3 3 0 000 1v2h-1c-1 1 0 2 1 2v-1s1-1 1 1v1l-1-1 1 3a15 15 0 010 2 8 8 0 010 2l-1 1-1-2v1l-2-1h1v-2l-1-2-1-1 1 1h1l-1-1zm-1-5l-1 2v1-1a3 3 0 010-1l1-1zm-2-2a2 2 0 011 1v1l-1 1v2a3 3 0 010-1v-4zm-1 4a1 1 0 010-1h1a3 3 0 010 1h-1zm1 3v1s0-1 0 0v-1h1v2c-1 1 0-1 0 0l-1 1a3 3 0 010-1l-1-1 1-1zm-3 6v-1 1zm-1-3l1 1h-1a1 1 0 010-1zm-1 1l-1 1 1-1zm-1-5a3 3 0 010 1v1h-1v-1l1-1zm0 7l-1-2 1 2zm-14-3v2-1a3 3 0 010-1zm0 5l-1-1v-1l1 2zm8 4s0-1 0 0zm-33-20v3-3zm-1 1v-1a5 5 0 010-1v1-1a9 9 0 010 2v1a4 4 0 010-1zm-1-2v1-1a7 7 0 010 1v-1zm0 2a3 3 0 010 1v1a6 6 0 010-2zm-1-1v-1a4 4 0 010-1v1a16 16 0 010 3v-2zm-1 1h1-1c0-1 0 0 0 0zm0 5v-1a8 8 0 010 1zm-3-5c0-1 0 0 0 0l1-1a7 7 0 010 1h-1zm0 1h1a3 3 0 010 1h-1v1a6 6 0 010-2zm-1-4c0-1 0 0 0 0v1-1zm0 3v-1a4 4 0 010-1h1l-1 1a17 17 0 010 3v-2zm0 1c0 1 0 0 0 0 0-1 0 0 0 0zm0 5v-1a6 6 0 010 1zm-6-19a1 1 0 010 1v-1zm1 5v1-1zm0 0v1-1zm0-4h1a2 2 0 010-1 1 1 0 010 1s0-1 0 0a2 2 0 010 1 2 2 0 01-1-2v1zm0-1a5 5 0 010 1 4 4 0 010-2zm0 0zm0 3v1-1zm0-2zm-1 2l1-1a2 2 0 010 1h-1zm0 2a3 3 0 010-1v1zm0-6v1a2 2 0 010-1zm0 4l-1 1 1-1zm-1-2a1 1 0 010 1v-1zm0 2zm-1-3a2 2 0 010 1l1 1-1-2zm-1 2v1-1zm-32 12c0-1 0 0 0 0a3 3 0 010 1 6 6 0 010-1zm-1-1v1-1zm-1 5l1-1-1 1a9 9 0 010 1v-1zm-2-3c0-1 0 0 0 0v-2a5 5 0 010-1v1h1a9 9 0 01-1 2v1a4 4 0 010-1zm-1-2l1-1a9 9 0 010 1h-1zm0 2h1a3 3 0 010 1h-1c-1 0 0 1 0 0a6 6 0 010-1zm-1-5v1-1zm0 3a4 4 0 011-1v1a16 16 0 01-1 3v-3zm0 1v1-1zm0 5a7 7 0 010 1v-1zm-6-6c0 1 0-1 0 0a2 2 0 010 1v-1zm-1 2v-1a1 1 0 010 1v-1zm0 0l-1-2 1 2zm-1-4v-1a7 7 0 010 2v-1zm-1 0v1-1zm-1 1s0-2 1-1-1 2-1 1zm-1 4c0-1 0 0 0 0v3a9 9 0 010-3zm-2-6s0-1 0 0v2l-1-1 1-1zm-1 7zm-1 0a6 6 0 010 1v-1zm-4 0v1a6 6 0 010-1zm-1-3v1s0-1 0 0v1-2zm0 4a9 9 0 010 1h1v-1a8 8 0 01-1 3v-2c0 1 0 0 0 0v-1zm0 3v3-3zm-2 1h1v-1a5 5 0 010-2v2-1a9 9 0 010 2l-1 1a4 4 0 010-1zm0-2s0 1 0 0v-1a9 9 0 010 1c0 1 0 1 0 0zm0 2c0-1 0 0 0 0a3 3 0 010 1 6 6 0 010-1zm-1-1v-1a4 4 0 010-1v1a16 16 0 01-1 3l1-2zm-1 0v1-1zm0 6v-1a9 9 0 010 1zm-2-4v-1a5 5 0 010-1v1-1a9 9 0 010 2v1a4 4 0 010-1zm-1-1c0-1 0 0 0 0v-1a9 9 0 010 1zm0 1a3 3 0 010 1v1a6 6 0 010-2zm-1-4c0-1 0-1 0 0zm0 3v-1a4 4 0 010-1v1a16 16 0 010 3v-2zm0 1zm-1 5l1-2-1 1a8 8 0 010 1zm-4-14s0 1 0 0zm-30 31l-1 1 1-1zm-8 2v2h1l-1 1-1 2 1-2v-2zm2 3v1-1zm0-2v-3a3 3 0 011 2l-1 1v1a2 2 0 010-1zm0 6zm-2-9l1 1c1 0 0 0 0 0v-1a7 7 0 010 3l-1-1h1l-1-1v-1zm-9-4l-1 1 1-1zm-1 2l-1-2 1 2zm-6 6s0 1 0 0zm-8-9v2-1a3 3 0 010-1zm0 5l-1-1v-1l1 2zm-6-33l1-1-1 1zm0 1c0-1 0-1 0 0v1a6 6 0 010-1zm-1 3h1l-1 3a9 9 0 010-3zm0-4v1l-1-1h1zm0 4h-1a9 9 0 010 1c0 1 0 0 0 0l1-1zm-10-1v2-2zm7 2zm-2-5a4 4 0 011-1s0-1 0 0v1a16 16 0 01-1 3v-3zm0 1v1-1zm0 5v-1a10 10 0 010 1c0 1 0 0 0 0zm-5-6h-1l1-1-1-1 1 2zm-2-4v4a4 4 0 010-3v-1zm-9 1v-2a6 6 0 010 2c0 2-1 3-1 1l1-1zm-2 1l1-1a12 12 0 010 2c0 1-1 1-1-1 0 0 0 1 0 0zm-2-3l1 1v3-3s0 3-1 2a8 8 0 010-3zm0 1l-1-1 1 1zm-1 2l1 1c0 2-1 0-1-1h1zm-5 4l1 3-1-3zm-8 6c-1 1-1 0-1-1l1 1zm-1 6v2-2zm-6-14c-1 0-1 3-1 1l1-1zm-12-2c0-1 0 0 0 0a3 3 0 010 1v1a6 6 0 010-2zm-1-1v-1a4 4 0 010-1v1a16 16 0 01-1 3l1-2zm-1 0v1-1zm0 6v-1a9 9 0 010 1zm-1 6v3a2 2 0 000-1 3 3 0 010-2zm-1-10v-1a5 5 0 010-1v1-1a9 9 0 010 2v1a4 4 0 010-1zm-1-1c0-1 0 0 0 0v-1a9 9 0 010 1zm0 1a3 3 0 010 1v1a6 6 0 010-2zm-1-4c0-1 0-1 0 0zm0 3v-1a4 4 0 010-1v1a16 16 0 010 3v-2zm0 1c0 1 0 0 0 0 0-1 0 0 0 0zm0 3l-1 1a9 9 0 010 1l1-2zm-27-14s0-1 0 0v2-2zm-2 7a7 7 0 010 2v-2zm-4 0h1l-1 2a6 6 0 010-2zm0-2c0 1 0 0 0 0v2l-1-1 1-1zm0 3v1-1a9 9 0 010 2v-1s0-1 0 0a8 8 0 010 2v-1l-1 1 1-2a2 2 0 010 1l-1-1 1-1zm-1 4v2-2zm-1 0v-1a5 5 0 010-1v1c0 1 0-1 0 0a9 9 0 010 1v1a4 4 0 010-1zm-1-1v-1a9 9 0 010 1zm0 1v1s0-1 0 0v1a6 6 0 010-2zm-1-1a4 4 0 010-2v1a16 16 0 010 4v-3zm0 1c0 1 0 0 0 0-1 0 0 0 0 0zm-1 5l1-1h-1a9 9 0 010 1zm-2-4s0 1 0 0v-1a5 5 0 010-1v1h1a9 9 0 01-1 1v1a4 4 0 010-1zm-1-1l1-1a7 7 0 010 1h-1zm0 2h1c1 1 0-1 0 0h-1v1a6 6 0 010-1zm-1-5v1a1 1 0 010-1zm0 3a4 4 0 011-2v1a16 16 0 01-1 4v-3zm0 1v1-1zm0 5v-1a7 7 0 010 1zm-14 8v1-1zm-9-4v1a3 3 0 010-1zm0-1c0-1 1 0 0 0zm2 5h1v1a7 7 0 01-1 2s0 1 0 0v-2h-1v-1h1v1h1l-1-1zm2 3c-1 1 0 2-1 1a2 2 0 010-1l1-1v-1a3 3 0 010 2zm0 3zm-1 4l-1-1 1 1zm-2-7l1 2h1l-2 1v1-4zm0-11l1-1v-2c0-1-1 0 0 0v-1l1-1v-2l1 1-1 1a3 3 0 000 1l1 1c0 1 0 0 0 0l-1 1v1l1-1 1 1h-1v3a15 15 0 010 2 8 8 0 010 2l-1 1-1-2v1s-1 1-1-1l1 1v-2l-1 1v-3l-1-1h1s0 1 0 0v-1zm-1-4l-1 1-1 1v-1a3 3 0 011-1h1zm-2-2a2 2 0 010 1h1l-1 2-1 1a3 3 0 010-1l1-1v-2zm-1 3v-2l1 1a3 3 0 01-1 1c0 1 0 1 0 0zm0 4l1 1v-2l1 2h-1v1a3 3 0 01-1-1v-1c0-1 0 0 0 0zm-2 6l-1-2 1 2zm-1-3h1l-1 1a1 1 0 010-1zm-2 0v1-1zm0-5a3 3 0 010 2h-1l1-2zm-1 8zm-5 5l-1 1 1-1zm-9-9l1 2v1l-1-1a3 3 0 010-2zm0 5v-1h-1l1 1zm-13 10l1-1-1 1z"/><path d="M699 41v-2a2 2 0 000-1l-1 1 1 2zm203-2s0-1 0 0l1-1a4 4 0 01-1 1l1 1 1 1h1v-3h-1a6 6 0 011-1 2 2 0 00-1 0 4 4 0 00-1 1c0-1 0-1 0 0a3 3 0 00-1 0v1zm2-1v1-1zm0 1l-1-1 1 1zm-1-1v1-1zm-74 1l1-2c1 0 0 0 0 0v-3a3 3 0 010-1c0-1 0 0 0 0v-1a1 1 0 01-1 1v1l-1-2a11 11 0 001 6v1zm-93-10zm66 1zm-66-1zm241-3zm0-2v1-1h-1l1 1a2 2 0 000-1zm1 0c0-1 0 0 0 0zm-40 15c0 1 0 0 0 0zm-10-5v2-2zm53-1v-1zm8 5c0 1 0 0 0 0zm-4 0zm-79 3v1a2 2 0 001-1h-1a3 3 0 000-1l-1-3v2l1 2zm20-6a1 1 0 000-1h-1v1h1zm-17 13l1-1a3 3 0 010-1 7 7 0 000-1l-1 2v1zm-74-8zm77 2a2 2 0 000 1v-1zm4-4v1-1zm-1 0a4 4 0 000 1 1 1 0 010-1zm-322-5a1 1 0 000-1h-1v1h1zm11 5l1-1-1-1v2zm-103 0v1a3 3 0 000-1zm78 3a2 2 0 000 1 2 2 0 010-1zm3-4zm13-4h-1a8 8 0 000 1l1-1zm53-2h-1zm4 5v1a1 1 0 000-1zm4 0c-1 1 0 0 0 0zm-13-12zm0-1a1 1 0 000-1 1 1 0 010 1zm2 0v-1a1 1 0 010 1zm-63 13v1-1zm-113-8v1-1zm-31 6v-1a7 7 0 000-1v2zm58 3v-5a3 3 0 010-1v1-1a1 1 0 010 1l-1 1v-2a11 11 0 001 5v1zm-100-1s1-1 0 0l1-1v1a3 3 0 010-1 6 6 0 000-1l-1 2v1-1zm99-8h1v-1h-1a2 2 0 000 1zm-92-1zm-1 0zm-37 12l1-2h-1v2zm211 7v-1a7 7 0 000-1v2zm-77-9zm73 2v1h1a2 2 0 000-1 3 3 0 00-1-1v1zm-3-2v1l1 1h1v1-4c0 1 0 1 0 0a6 6 0 010-1 4 4 0 00-2 1h1l-1 1zm2 0zm-1 0zm0-1v1-1zm-1 1v-1 1z"/><path d="M568 38a1 1 0 001 0 2 2 0 000-1l-1 1 1-1h-1v1zm-308-5a1 1 0 000-1h-1v1h1zm-11 4zm13-4h-1v1l1-1zm-13 3v1-1zm-10 3v1h1a2 2 0 000-1 3 3 0 00-1-1v-2l-1 2 1 1zm4 7v-1a7 7 0 000-1v2zm2-5a2 2 0 000 1 2 2 0 011-1h-1zm73-5v1a1 1 0 000-1zm5 0zm-9-5zm-43 7v-1h1l-1-1v2zm39-14zm0-1a1 1 0 000-1 1 1 0 010 1zm2 0a8 8 0 000-1h-1a1 1 0 011 1zM69 27zm36 7v-1a7 7 0 000-1v2zm63 4a1 1 0 000 1 1 1 0 000-1zm-5-1v-5a3 3 0 010-1v1-1h-1a1 1 0 010 1v1-2a11 11 0 000 5l1 1zm-27-9l-1 1 1-1zm-73 8s0-1 0 0h1a3 3 0 010-1 7 7 0 000-1c-1-1-1 1-1 2v1-1zm-31 3v-2a2 2 0 001 0h-1v2zm38-12h-1 1zm92 1h1a3 3 0 000-1 3 3 0 00-1 0 2 2 0 000 1z"/><path d="M235 37h1s0-1 0 0v1l1 1s0-1 0 0l1 1c1 0 0 0 0 0v-4c0 1 0 1 0 0a6 6 0 010-1 2 2 0 00-1 0 4 4 0 00-1 1v1-1l-1 1zm2 0zm0 0zm0-1v1-1z"/><path d="M236 37v-1l-1 1h1zm-1 1a1 1 0 001 0 2 2 0 00-1-1v1zm-69-1z"/></g></svg>